<?xml version="1.0" encoding="UTF-8"?><svg xmlns="http://www.w3.org/2000/svg" viewBox="0 0 197.67 12.48"><defs><style>.d{fill:#131313;}</style></defs><g id="a"/><g id="b"><g id="c"><path class="d" d="M197.63,9.18c-.75-2.18-2.68-4-4.52-5.28C187.5-.02,179.95-.35,173.38,.25c-6.21,.57-12.32,2.06-18.26,3.94-7.18,2.27-14.14,4.87-21.61,6.04-8.65,1.36-18.15,1.23-26.07-2.94-2.98-1.57-6.29-3.9-7.96-6.89-.27-.49-1.02-.49-1.29,0-1.34,2.41-3.84,4.4-6.16,5.86-6.93,4.36-15.49,5.2-23.49,4.51C54.45,9.54,41.77,2.72,27.84,.68,20.67-.37,12.5-.62,5.96,3.03,3.58,4.35,.97,6.49,.04,9.18c-.31,.91,1.13,1.3,1.44,.4,.06-.18-.03,.02,.15-.34,.22-.43,.48-.85,.76-1.24,.98-1.35,2.28-2.45,3.7-3.32C12.57,.7,21.13,1.11,28.33,2.26c13.73,2.19,26.27,8.79,40.21,10,7.91,.69,16.33-.14,23.33-4.16,2.86-1.64,5.97-3.99,7.61-6.95h-1.29c1.34,2.4,3.7,4.38,5.93,5.89,6.17,4.2,13.87,5.57,21.21,5.42,6.03-.12,12.03-1.22,17.83-2.83,7.38-2.04,14.45-4.97,21.97-6.59,7.89-1.7,17.34-2.88,24.9,.79,1.91,.92,3.7,2.19,5.02,3.87,.35,.44,.65,.92,.92,1.41,.18,.34,.18,.37,.22,.46,.31,.9,1.76,.52,1.44-.4h0Z"/></g></g></svg>